. 
  
http://www.torrenting.com/        :     Greatest Movie Tracker on The Net!!!
 
http://www.Torrenting.com          :     Once & For all ;)


               www . Torrenting . Com 

(((((((((((((= Enjoy No RAR releases =))))))))))))))))))))


...................................NFO:....................................

.[img]http://img24.imageshack.us/img24/6448/witchesofozver4xlg.jpg[/img]

[color=blue][size=4][b]The.Witches.of.Oz.2011.R5.DVDRip.XVID.AC3.HQ.Hive-CM8[/b][/size][/color]


[b]Thx Hive

CM8 Doing It Right The First Time :D

Source: Russian DVD-9
had English Audio on it

Encode:
DVD was very good in quality, could almost pass as a bdrip. 
It is a 2 part movie with runtime of nearly 3hours and also was in 2 parts on the dvd.
It is a movie for kids and is currently shown on scyfy in uk i heard.
Added brightnes,sharpness,chroma,rgb and denoise.
I muxed the two parts together to one complete movie and removed the unnecessary 5 min introduction at the beginning of the second part where you can see again what all happened in part 1.

Video: 720x400 @bitrate 1800 2pass
Audio: English AC3 5.1 @256 (like on DVD)
Sample: yes included[/b]


[url]http://www.imdb.com/title/tt1592287/[/url]


General
Complete name                    : The.Witches.of.Oz.2011.R5.DVDRip.XVID.AC3.HQ.Hive-CM8.avi
Format                           : AVI
Format/Info                      : Audio Video Interleave
Format profile                   : OpenDML
Format settings                  : rec
File size                        : 2.29 GiB
Duration                         : 2h 39mn
Overall bit rate                 : 2 058 Kbps
Writing application              : AVI-Mux GUI 1.17.7, Aug  8 2006  20:59:17

Video
ID                               : 0
Format                           : MPEG-4 Visual
Format profile                   : Advanced Simple@L5
Format settings, BVOP            : 2
Format settings, QPel            : Yes
Format settings, GMC             : No warppoints
Format settings, Matrix          : Default (H.263)
Muxing mode                      : Packed bitstream
Codec ID                         : XVID
Codec ID/Hint                    : XviD
Duration                         : 2h 39mn
Bit rate                         : 1 796 Kbps
Width                            : 720 pixels
Height                           : 400 pixels
Display aspect ratio             : 16:9
Frame rate                       : 25.000 fps
Color space                      : YUV
Chroma subsampling               : 4:2:0
Bit depth                        : 8 bits
Scan type                        : Progressive
Compression mode                 : Lossy
Bits/(Pixel*Frame)               : 0.249
Stream size                      : 2.00 GiB (87%)
Writing library                  : XviD 1.2.1 (UTC 2008-12-04)

Audio
ID                               : 1
Format                           : AC-3
Format/Info                      : Audio Coding 3
Mode extension                   : CM (complete main)
Codec ID                         : 2000
Duration                         : 2h 39mn
Bit rate mode                    : Constant
Bit rate                         : 256 Kbps
Channel(s)                       : 6 channels
Channel positions                : Front: L C R, Side: L R, LFE
Sampling rate                    : 48.0 KHz
Bit depth                        : 16 bits
Compression mode                 : Lossy
Stream size                      : 291 MiB (12%)
Alignment                        : Aligned on interleaves
Interleave, duration             : 64 ms (1.60 video frames)
Interleave, preload duration     : 192 ms



Sean Astin	... 	Frack
Billy Boyd	... 	Nick Chopper
Jeffrey Combs	... 	Frank
Brionne Davis	... 	Simon
Monti Domingue	... 	Amy
Liz Douglas	... 	Em
Ashley Blythe Ellington	... 	Betsy Bobbin
Ethan Embry	... 	Frick


The Witches of Oz follows the exploits of the grown Dorothy Gale, now a successful children's book author, 
as she moves from Kansas to present day New York City. Dorothy quickly learns that her popular books are based 
on repressed childhood memories, and that the wonders of Oz are very, very real. When the Wicked Witch of the West 
shows up in Times Square, Dorothy must find the inner courage to stop her.


[img]http://img33.imageshack.us/img33/3016/ozozzozozoozoozozozz.png[/img]
[img]http://img818.imageshack.us/img818/2536/ozozzozooozozozz.png[/img]
[img]http://img4.imageshack.us/img4/6201/ozozzozoozoozozozz.png[/img]
[img]http://img813.imageshack.us/img813/850/ozozzozozoozozoozozozz.png[/img]
[img]http://img823.imageshack.us/img823/8185/18303019.png[/img]
[img]http://img204.imageshack.us/img204/9416/ozoz.png[/img]
[img]http://img835.imageshack.us/img835/6756/ozozoozozozz.png[/img]
[img]http://img833.imageshack.us/img833/2060/ozozoozozz.png[/img]
[img]http://img35.imageshack.us/img35/268/ozozoozz.png[/img]
[img]http://img818.imageshack.us/img818/4950/ozozoz.png[/img]
[img]http://img694.imageshack.us/img694/2307/ozozzooozozozz.png[/img]




Greetz

ViSiON,SANTi,MAGNET,THC,T0XiC,LKRG,IMAGiNE,WBZ,FLAWL3SS,NOVA
D2U,Vik,Rapeseed,SAFC,goldadvance,MEMORY100,KaN1vE,Unevano,
Pinnz,Wayne,Mr Hive and all P2P groups 
Great Work Guys :D

FYS

CM8@hushmail.com